<svg xmlns="http://www.w3.org/2000/svg" viewBox="0 0 1200 400" width="1200" height="400">
	<style>
		tspan { white-space:pre }
		.shp0 { fill: #ffffff } 
		.shp1 { fill: #fbf8ed } 
	</style>
	<g id="Layer">
		<g id="Layer">
			<g id="Layer">
				<path id="cTg4P5YXy" class="shp0" d="M807.73 13.22L812.47 13.97L817.14 14.92L821.77 16.07L826.31 17.41L830.78 18.95L835.18 20.67L839.49 22.58L843.72 24.66L847.86 26.92L851.91 29.35L855.86 31.94L859.71 34.7L863.47 37.61L867.11 40.67L870.63 43.89L874.05 47.25L877.34 50.74L880.51 54.38L883.56 58.14L886.47 62.04L889.24 66.05L889.51 66.47L889.58 66.49L893.36 67.43L897.06 68.53L900.72 69.78L904.31 71.19L907.84 72.75L911.3 74.45L914.68 76.3L917.99 78.28L921.22 80.4L924.37 82.65L927.43 85.03L929.08 86.42L930.73 85.03L933.79 82.65L936.94 80.4L940.17 78.28L943.48 76.3L946.86 74.45L950.33 72.75L953.85 71.19L957.44 69.78L961.09 68.53L964.81 67.43L968.59 66.49L972.41 65.71L976.28 65.1L980.21 64.66L984.18 64.39L988.18 64.3L992.2 64.39L996.17 64.66L1000.08 65.1L1003.96 65.71L1007.79 66.49L1011.56 67.43L1015.28 68.53L1018.93 69.78L1022.52 71.19L1026.05 72.75L1029.51 74.45L1032.89 76.3L1036.2 78.28L1039.43 80.4L1042.58 82.65L1045.64 85.03L1045.93 85.28L1046.22 85.03L1049.28 82.65L1052.44 80.4L1055.67 78.28L1058.97 76.3L1062.36 74.45L1065.82 72.75L1069.34 71.19L1072.94 69.78L1076.59 68.53L1080.31 67.43L1084.08 66.49L1087.91 65.71L1091.78 65.1L1095.71 64.66L1099.68 64.39L1103.68 64.3L1107.7 64.39L1111.66 64.66L1115.58 65.1L1119.46 65.71L1123.28 66.49L1127.05 67.43L1130.77 68.53L1134.43 69.78L1138.02 71.19L1141.55 72.75L1145.01 74.45L1148.39 76.3L1151.7 78.28L1154.93 80.4L1158.08 82.65L1161.14 85.03L1164.11 87.54L1167 90.16L1169.79 92.91L1172.49 95.77L1175.07 98.74L1177.56 101.82L1179.95 105L1182.21 108.28L1184.37 111.66L1186.41 115.14L1188.33 118.7L1190.13 122.35L1191.8 126.09L1193.35 129.9L1194.76 133.79L1196.03 137.76L1197.18 141.79L1198.17 145.89L1199.02 150.05L1199.72 154.27L1200.27 158.55L1200.67 162.88L1200.92 167.26L1201 171.68L1200.92 176.1L1200.67 180.48L1200.27 184.81L1199.72 189.09L1199.02 193.31L1198.17 197.47L1197.18 201.57L1196.03 205.6L1194.76 209.57L1193.35 213.46L1191.8 217.27L1190.13 221.01L1188.33 224.66L1186.41 228.22L1184.37 231.7L1182.21 235.08L1179.95 238.36L1177.56 241.54L1175.07 244.62L1172.49 247.59L1169.79 250.45L1167 253.2L1164.11 255.82L1161.14 258.33L1158.08 260.71L1154.93 262.96L1151.7 265.08L1148.39 267.06L1145.01 268.91L1141.55 270.61L1138.02 272.17L1134.43 273.58L1130.77 274.84L1127.05 275.93L1126.25 276.14L1125.89 277.03L1124.59 279.93L1123.19 282.76L1121.7 285.53L1120.11 288.23L1118.44 290.85L1116.68 293.4L1114.83 295.87L1112.9 298.26L1110.89 300.57L1108.79 302.79L1106.63 304.92L1104.39 306.96L1102.08 308.9L1099.7 310.75L1097.26 312.5L1094.74 314.15L1092.18 315.69L1089.55 317.12L1086.86 318.44L1084.12 319.65L1081.33 320.75L1078.49 321.72L1075.61 322.58L1072.69 323.3L1069.71 323.91L1066.7 324.38L1063.66 324.72L1060.58 324.93L1057.46 325L1054.35 324.93L1051.27 324.72L1048.22 324.38L1045.22 323.91L1042.24 323.3L1039.32 322.58L1036.42 321.72L1033.59 320.75L1030.8 319.65L1028.06 318.44L1025.38 317.12L1022.75 315.69L1020.17 314.15L1017.67 312.5L1015.23 310.75L1012.84 308.9L1010.54 306.96L1008.29 304.92L1006.13 302.79L1004.04 300.57L1002.03 298.26L1000.1 295.87L998.25 293.4L996.48 290.85L994.81 288.23L993.23 285.53L991.73 282.76L990.34 279.93L989.93 279.02L988.18 279.06L984.18 278.97L980.21 278.7L976.28 278.26L972.41 277.65L968.59 276.87L964.81 275.93L961.09 274.84L957.44 273.58L953.85 272.17L950.33 270.61L946.86 268.91L943.48 267.06L940.17 265.08L936.94 262.96L933.79 260.71L930.73 258.33L929.08 256.94L927.43 258.33L924.37 260.71L921.22 262.96L917.99 265.08L914.68 267.06L911.3 268.91L907.84 270.61L904.31 272.17L900.72 273.58L897.06 274.84L893.36 275.93L889.58 276.87L885.75 277.65L881.87 278.26L877.96 278.7L873.99 278.97L869.97 279.06L865.97 278.97L862 278.7L858.07 278.26L854.2 277.65L850.38 276.87L848.49 276.41L848.24 277.03L846.94 279.93L845.55 282.76L844.05 285.53L842.47 288.23L840.8 290.85L839.03 293.4L837.18 295.87L835.25 298.26L833.24 300.57L831.15 302.79L828.98 304.92L826.74 306.96L824.43 308.9L822.06 310.75L819.61 312.5L817.1 314.15L814.53 315.69L811.91 317.12L809.22 318.44L806.48 319.65L803.69 320.75L800.85 321.72L797.97 322.58L795.04 323.3L792.07 323.91L789.06 324.38L786.01 324.72L782.93 324.93L779.81 325L776.71 324.93L773.62 324.72L770.58 324.38L767.57 323.91L764.6 323.3L761.67 322.58L758.78 321.72L755.94 320.75L753.15 319.65L750.41 318.44L747.73 317.12L745.1 315.69L742.54 314.15L740.03 312.5L737.58 310.75L735.21 308.9L732.89 306.96L730.66 304.92L728.49 302.79L726.4 300.57L724.38 298.26L722.45 295.87L720.6 293.4L718.84 290.85L717.17 288.23L715.58 285.53L714.09 282.76L712.69 279.93L712.53 279.56L712.28 279.98L710.6 282.61L708.84 285.15L706.99 287.63L705.06 290.02L703.05 292.32L700.96 294.54L698.79 296.67L696.55 298.71L694.24 300.66L691.87 302.51L689.42 304.25L686.91 305.9L684.34 307.44L681.72 308.87L679.02 310.2L676.29 311.41L673.5 312.5L670.66 313.48L667.78 314.33L664.85 315.06L661.88 315.66L658.87 316.14L655.82 316.48L652.74 316.68L649.62 316.75L646.51 316.68L643.43 316.48L640.39 316.14L637.38 315.66L634.41 315.06L631.48 314.33L628.59 313.48L625.75 312.5L622.96 311.41L620.22 310.2L617.54 308.87L614.91 307.44L612.34 305.9L609.84 304.25L607.39 302.51L605.01 300.66L602.7 298.71L600.46 296.67L598.29 294.54L596.21 292.32L594.19 290.02L592.26 287.63L590.41 285.15L588.65 282.61L586.97 279.98L586.25 278.76L583.1 278.97L579.09 279.06L578.82 279.05L578.73 279.17L576.77 281.61L574.73 283.94L572.61 286.18L570.43 288.33L568.17 290.37L565.85 292.31L563.47 294.15L561.03 295.89L558.53 297.52L555.97 299.05L553.37 300.46L550.73 301.77L548.03 302.96L545.3 304.04L542.53 305L539.72 305.85L536.88 306.58L534.02 307.19L531.12 307.67L528.21 308.03L525.28 308.27L522.33 308.38L519.37 308.37L516.4 308.22L513.42 307.94L510.44 307.53L507.46 306.98L504.49 306.3L501.52 305.48L498.55 304.52L495.61 303.42L492.7 302.19L489.87 300.84L487.1 299.38L484.42 297.8L481.81 296.12L479.28 294.34L476.83 292.45L474.46 290.47L472.18 288.4L469.97 286.23L467.85 283.98L465.82 281.65L463.88 279.24L462.03 276.75L461.33 275.74L460.68 275.93L456.91 276.87L453.07 277.65L449.2 278.26L445.28 278.7L444.25 278.77L444.31 279.94L444.37 283.38L444.31 286.81L444.13 290.21L443.81 293.57L443.38 296.89L442.84 300.17L442.18 303.4L441.4 306.59L440.52 309.72L439.52 312.8L438.44 315.82L437.23 318.78L435.93 321.68L434.54 324.52L433.04 327.28L431.46 329.98L429.79 332.61L428.02 335.15L426.17 337.63L424.24 340.02L422.23 342.32L420.14 344.54L417.97 346.67L415.73 348.71L413.42 350.66L411.05 352.51L408.6 354.25L406.09 355.9L403.53 357.44L400.9 358.87L398.21 360.2L395.47 361.41L392.69 362.5L389.84 363.48L386.96 364.33L384.03 365.06L381.06 365.66L378.05 366.14L375 366.48L371.92 366.68L368.81 366.75L365.7 366.68L362.62 366.48L359.57 366.14L356.56 365.66L353.59 365.06L350.66 364.33L347.77 363.48L344.93 362.5L342.14 361.41L339.4 360.2L336.72 358.87L334.09 357.44L331.53 355.9L329.02 354.25L326.57 352.51L324.2 350.66L321.89 348.71L319.65 346.67L317.48 344.54L315.39 342.32L313.38 340.02L311.45 337.63L309.6 335.15L307.83 332.61L306.16 329.98L304.58 327.28L303.08 324.52L301.68 321.68L300.39 318.78L299.55 316.73L297.72 316.68L294.64 316.48L291.6 316.14L288.59 315.66L285.62 315.06L282.69 314.33L279.8 313.48L276.96 312.5L274.17 311.41L271.43 310.2L268.75 308.87L266.12 307.44L263.56 305.9L261.05 304.25L258.6 302.51L256.22 300.66L253.91 298.71L251.67 296.67L249.51 294.54L247.41 292.32L245.4 290.02L243.47 287.63L241.62 285.15L239.86 282.61L238.19 279.98L236.6 277.28L235.64 275.51L234.19 275.93L230.42 276.87L226.6 277.65L222.72 278.26L218.79 278.7L214.82 278.97L210.82 279.06L206.81 278.97L202.84 278.7L198.92 278.26L195.04 277.65L191.21 276.87L187.44 275.93L183.73 274.84L180.07 273.58L176.48 272.17L172.95 270.61L169.49 268.91L166.11 267.06L162.8 265.08L159.57 262.96L156.42 260.71L154.56 259.27L152.72 260.71L149.56 262.96L146.33 265.08L143.03 267.06L139.64 268.91L136.18 270.61L132.66 272.17L129.06 273.58L125.41 274.84L121.69 275.93L117.92 276.87L114.1 277.65L110.22 278.26L106.29 278.7L102.32 278.97L98.32 279.06L94.31 278.97L90.34 278.7L86.42 278.26L82.54 277.65L78.72 276.87L74.95 275.93L71.23 274.84L67.58 273.58L63.98 272.17L60.45 270.61L57 268.91L53.61 267.06L50.3 265.08L47.08 262.96L43.92 260.71L40.86 258.33L37.89 255.82L35 253.2L32.21 250.45L29.52 247.59L26.93 244.62L24.44 241.54L22.06 238.36L19.79 235.08L17.63 231.7L15.59 228.22L13.67 224.66L11.88 221.01L10.2 217.27L8.66 213.46L7.24 209.57L5.97 205.6L4.82 201.57L3.84 197.47L2.98 193.31L2.28 189.09L1.73 184.81L1.33 180.48L1.08 176.1L1 171.68L1.08 167.26L1.33 162.88L1.73 158.55L2.28 154.27L2.98 150.05L3.84 145.89L4.82 141.79L5.97 137.76L7.24 133.79L8.66 129.9L10.2 126.09L11.88 122.35L13.67 118.7L15.59 115.14L17.63 111.66L19.79 108.28L22.06 105L24.44 101.82L26.93 98.74L29.52 95.77L32.21 92.91L35 90.16L37.89 87.54L40.86 85.03L43.92 82.65L47.08 80.4L50.3 78.28L53.61 76.3L57 74.45L60.45 72.75L63.98 71.19L67.58 69.78L71.23 68.53L74.95 67.43L78.72 66.49L82.54 65.71L86.42 65.1L90.34 64.66L94.31 64.39L98.32 64.3L102.32 64.39L106.29 64.66L110.22 65.1L114.1 65.71L117.92 66.49L121.69 67.43L125.41 68.53L129.06 69.78L132.66 71.19L136.18 72.75L139.64 74.45L143.03 76.3L146.33 78.28L149.56 80.4L152.72 82.65L154.56 84.09L156.42 82.65L159.57 80.4L162.8 78.28L166.11 76.3L169.49 74.45L172.95 72.75L176.48 71.19L180.07 69.78L183.73 68.53L187.44 67.43L191.21 66.49L195.04 65.71L198.92 65.1L202.84 64.66L206.81 64.39L210.82 64.3L214.82 64.39L218.79 64.66L222.72 65.1L226.6 65.71L230.42 66.49L234.19 67.43L237.91 68.53L241.56 69.78L245.16 71.19L248.68 72.75L252.14 74.45L252.64 74.73L253.2 74.09L255.89 71.23L258.68 68.48L261.56 65.86L264.53 63.35L267.6 60.97L270.75 58.72L273.98 56.6L277.29 54.62L280.68 52.77L284.13 51.07L287.65 49.51L291.25 48.1L294.91 46.85L298.62 45.75L302.39 44.81L306.22 44.03L310.09 43.42L314.02 42.98L317.99 42.71L321.99 42.62L326.01 42.71L329.97 42.98L333.89 43.42L337.77 44.03L341.6 44.81L345.37 45.75L349.08 46.85L352.75 48.1L356.33 49.51L359.86 51.07L363.32 52.77L366.7 54.62L370.01 56.6L373.25 58.72L376.39 60.97L379.45 63.35L382.43 65.86L385.32 68.48L388.1 71.23L390.8 74.09L392.69 76.25L395.98 74.45L399.44 72.75L402.96 71.19L406.55 69.78L410.21 68.53L413.93 67.43L417.7 66.49L421.52 65.71L425.4 65.1L429.33 64.66L433.29 64.39L437.3 64.3L441.31 64.39L445.28 64.66L449.2 65.1L453.07 65.71L456.91 66.49L460.68 67.43L464.39 68.53L468.05 69.78L471.63 71.19L475.17 72.75L478.62 74.45L482 76.3L485.32 78.28L488.55 80.4L491.69 82.65L494.75 85.03L497.74 87.54L500.62 90.16L503.41 92.91L506.1 95.77L508.19 98.17L510.3 95.77L512.99 92.91L515.78 90.16L518.66 87.54L521.64 85.03L524.7 82.65L527.85 80.4L531.08 78.28L534.39 76.3L537.78 74.45L541.23 72.75L544.75 71.19L548.35 69.78L552.01 68.53L555.72 67.43L559.49 66.49L563.32 65.71L567.19 65.1L571.12 64.66L575.09 64.39L579.09 64.3L583.1 64.39L587.07 64.66L590.99 65.1L594.87 65.71L598.7 66.49L602.47 67.43L606.18 68.53L609.85 69.78L613.43 71.19L616.96 72.75L620.42 74.45L623.8 76.3L627.11 78.28L630.35 80.4L633.49 82.65L636.55 85.03L639.53 87.54L642.41 90.16L645.2 92.91L647.89 95.77L648.09 96L649.16 94.68L651.74 91.71L654.44 88.85L657.23 86.11L660.12 83.48L663.09 80.97L666.15 78.59L669.3 76.34L672.53 74.22L675.84 72.24L679.22 70.39L682.69 68.69L686.21 67.13L689.8 65.72L693.46 64.47L697.18 63.37L699.31 62.84L699.86 62.04L702.77 58.14L705.81 54.38L708.99 50.74L712.28 47.25L715.69 43.89L719.22 40.67L722.86 37.61L726.61 34.7L730.47 31.94L734.42 29.35L738.47 26.92L742.61 24.66L746.83 22.58L751.15 20.67L755.54 18.95L760.02 17.41L764.56 16.07L769.18 14.92L773.86 13.97L778.6 13.22L783.4 12.68L788.26 12.36L793.16 12.25L798.07 12.36L802.92 12.68L802.92 12.68L807.73 13.22Z" />
				<path id="Layer 1" class="shp0" d="M-1.5 297C-80.86 297 -145 232.86 -145 153.5C-145 74.14 -80.86 10 -1.5 10C77.86 10 142 74.14 142 153.5C142 232.86 77.86 297 -1.5 297Z" />
				<path id="Layer 1 copy" class="shp0" d="M1200.5 297C1121.14 297 1057 232.86 1057 153.5C1057 74.14 1121.14 10 1200.5 10C1279.86 10 1344 74.14 1344 153.5C1344 232.86 1279.86 297 1200.5 297Z" />
			</g>
		</g>
		<g id="pair">
			<path id="yllyo" class="shp1" d="M935.05 167.69C913.56 167.69 896.2 150.33 896.2 128.85C896.2 107.36 913.56 90 935.05 90C956.53 90 973.89 107.36 973.89 128.85C973.89 150.33 956.53 167.69 935.05 167.69Z" />
			<path id="whte" class="shp0" d="M926.5 173.91C898.57 173.91 876 156.54 876 135.06C876 113.58 898.57 96.22 926.5 96.22C954.43 96.22 977 113.58 977 135.06C977 156.54 954.43 173.91 926.5 173.91Z" />
		</g>
		<g id="pair copy 3">
			<path id="yllyo copy" class="shp1" d="M743.05 117.69C721.56 117.69 704.2 100.33 704.2 78.85C704.2 57.36 721.56 40 743.05 40C764.53 40 781.89 57.36 781.89 78.85C781.89 100.33 764.53 117.69 743.05 117.69Z" />
			<path id="whte copy" class="shp0" d="M746.5 123.91C718.57 123.91 696 106.54 696 85.06C696 63.58 718.57 46.22 746.5 46.22C774.43 46.22 797 63.58 797 85.06C797 106.54 774.43 123.91 746.5 123.91Z" />
		</g>
		<g id="pair copy">
			<path id="white-100 copy" class="shp1" d="M242 200C214.35 200 192 177.65 192 150C192 122.35 214.35 100 242 100C269.65 100 292 122.35 292 150C292 177.65 269.65 200 242 200Z" />
			<path id="yellow-100 copy" class="shp0" d="M246 208C218.35 208 196 185.65 196 158C196 130.35 218.35 108 246 108C273.65 108 296 130.35 296 158C296 185.65 273.65 208 246 208Z" />
		</g>
		<g id="pair copy 2">
			<path id="white-100 copy 2" class="shp1" d="M666.77 114.23C659.88 124.32 645.65 126.56 634.93 119.24C624.22 111.92 621.13 97.84 628.02 87.75C634.91 77.67 649.15 75.43 659.86 82.75C670.58 90.07 673.67 104.14 666.77 114.23Z" />
			<path id="yellow-100 copy 2" class="shp0" d="M673.81 123.55C666.03 134.94 649.09 136.87 635.92 127.87C622.75 118.87 618.4 102.39 626.18 91C633.96 79.61 650.9 77.68 664.07 86.67C677.24 95.67 681.6 112.15 673.81 123.55Z" />
		</g>
	</g>
</svg>