<?xml version="1.0" encoding="UTF-8" standalone="no"?>
<!DOCTYPE svg PUBLIC "-//W3C//DTD SVG 1.1//EN" "http://www.w3.org/Graphics/SVG/1.1/DTD/svg11.dtd">
<svg version="1.1" xmlns="http://www.w3.org/2000/svg" xmlns:xlink="http://www.w3.org/1999/xlink" preserveAspectRatio="xMidYMid meet" viewBox="0 0 1200 400" width="1200" height="400"><defs><path d="M803.57 13.22L808.8 13.97L813.96 14.92L819.06 16.07L824.07 17.41L829.01 18.95L833.86 20.67L838.62 22.58L843.28 24.66L847.85 26.92L852.32 29.35L856.68 31.94L860.93 34.7L865.07 37.61L869.09 40.67L872.98 43.89L876.75 47.25L880.38 50.74L883.88 54.38L887.24 58.14L890.45 62.04L893.51 66.05L893.81 66.47L893.88 66.49L898.05 67.43L902.14 68.53L906.18 69.78L910.14 71.19L914.03 72.75L917.85 74.45L921.58 76.3L925.23 78.28L928.8 80.4L932.27 82.65L935.65 85.03L937.47 86.42L939.29 85.03L942.67 82.65L946.14 80.4L949.7 78.28L953.36 76.3L957.09 74.45L960.91 72.75L964.8 71.19L968.76 69.78L972.79 68.53L976.89 67.43L981.06 66.49L985.28 65.71L989.55 65.1L993.88 64.66L998.26 64.39L1002.68 64.3L1007.11 64.39L1011.49 64.66L1015.81 65.1L1020.09 65.71L1024.31 66.49L1028.48 67.43L1032.58 68.53L1036.61 69.78L1040.57 71.19L1044.46 72.75L1048.28 74.45L1052.01 76.3L1055.66 78.28L1059.23 80.4L1062.7 82.65L1066.08 85.03L1066.4 85.28L1066.72 85.03L1070.1 82.65L1073.58 80.4L1077.14 78.28L1080.79 76.3L1084.53 74.45L1088.34 72.75L1092.23 71.19L1096.2 69.78L1100.23 68.53L1104.33 67.43L1108.49 66.49L1112.72 65.71L1116.99 65.1L1121.32 64.66L1125.7 64.39L1130.12 64.3L1134.55 64.39L1138.92 64.66L1143.25 65.1L1147.53 65.71L1151.75 66.49L1155.91 67.43L1160.01 68.53L1164.05 69.78L1168.01 71.19L1171.9 72.75L1175.72 74.45L1179.45 76.3L1183.1 78.28L1186.67 80.4L1190.14 82.65L1193.52 85.03L1196.8 87.54L1199.99 90.16L1203.06 92.91L1206.04 95.77L1208.89 98.74L1211.64 101.82L1214.27 105L1216.77 108.28L1219.15 111.66L1221.4 115.14L1223.52 118.7L1225.51 122.35L1227.35 126.09L1229.06 129.9L1230.61 133.79L1232.02 137.76L1233.28 141.79L1234.38 145.89L1235.32 150.05L1236.09 154.27L1236.7 158.55L1237.14 162.88L1237.41 167.26L1237.5 171.68L1237.41 176.1L1237.14 180.48L1236.7 184.81L1236.09 189.09L1235.32 193.31L1234.38 197.47L1233.28 201.57L1232.02 205.6L1230.61 209.57L1229.06 213.46L1227.35 217.27L1225.51 221.01L1223.52 224.66L1221.4 228.22L1219.15 231.7L1216.77 235.08L1214.27 238.36L1211.64 241.54L1208.89 244.62L1206.04 247.59L1203.06 250.45L1199.99 253.2L1196.8 255.82L1193.52 258.33L1190.14 260.71L1186.67 262.96L1183.1 265.08L1179.45 267.06L1175.72 268.91L1171.9 270.61L1168.01 272.17L1164.05 273.58L1160.01 274.84L1155.91 275.93L1155.02 276.14L1154.62 277.03L1153.19 279.93L1151.65 282.76L1150 285.53L1148.25 288.23L1146.4 290.85L1144.46 293.4L1142.42 295.87L1140.29 298.26L1138.07 300.57L1135.76 302.79L1133.37 304.92L1130.9 306.96L1128.35 308.9L1125.73 310.75L1123.03 312.5L1120.26 314.15L1117.43 315.69L1114.53 317.12L1111.56 318.44L1108.54 319.65L1105.46 320.75L1102.33 321.72L1099.15 322.58L1095.92 323.3L1092.64 323.91L1089.32 324.38L1085.96 324.72L1082.56 324.93L1079.12 325L1075.69 324.93L1072.29 324.72L1068.93 324.38L1065.61 323.91L1062.33 323.3L1059.1 322.58L1055.91 321.72L1052.78 320.75L1049.7 319.65L1046.68 318.44L1043.72 317.12L1040.82 315.69L1037.98 314.15L1035.22 312.5L1032.52 310.75L1029.89 308.9L1027.35 306.96L1024.87 304.92L1022.48 302.79L1020.18 300.57L1017.96 298.26L1015.83 295.87L1013.79 293.4L1011.84 290.85L1009.99 288.23L1008.25 285.53L1006.6 282.76L1005.06 279.93L1004.61 279.02L1002.68 279.06L998.26 278.97L993.88 278.7L989.55 278.26L985.28 277.65L981.06 276.87L976.89 275.93L972.79 274.84L968.76 273.58L964.8 272.17L960.91 270.61L957.09 268.91L953.36 267.06L949.7 265.08L946.14 262.96L942.67 260.71L939.29 258.33L937.47 256.94L935.65 258.33L932.27 260.71L928.8 262.96L925.23 265.08L921.58 267.06L917.85 268.91L914.03 270.61L910.14 272.17L906.18 273.58L902.14 274.84L898.05 275.93L893.88 276.87L889.66 277.65L885.38 278.26L881.06 278.7L876.68 278.97L872.25 279.06L867.83 278.97L863.45 278.7L859.12 278.26L854.85 277.65L850.63 276.87L848.55 276.41L848.27 277.03L846.84 279.93L845.3 282.76L843.65 285.53L841.9 288.23L840.06 290.85L838.11 293.4L836.07 295.87L833.94 298.26L831.72 300.57L829.41 302.79L827.02 304.92L824.55 306.96L822 308.9L819.38 310.75L816.68 312.5L813.91 314.15L811.08 315.69L808.18 317.12L805.22 318.44L802.19 319.65L799.12 320.75L795.98 321.72L792.8 322.58L789.57 323.3L786.29 323.91L782.97 324.38L779.61 324.72L776.21 324.93L772.77 325L769.34 324.93L765.94 324.72L762.58 324.38L759.26 323.91L755.98 323.3L752.75 322.58L749.56 321.72L746.43 320.75L743.35 319.65L740.33 318.44L737.37 317.12L734.47 315.69L731.64 314.15L728.87 312.5L726.17 310.75L723.55 308.9L721 306.96L718.53 304.92L716.14 302.79L713.83 300.57L711.61 298.26L709.48 295.87L707.44 293.4L705.49 290.85L703.65 288.23L701.9 285.53L700.25 282.76L698.71 279.93L698.53 279.56L698.25 279.98L696.4 282.61L694.46 285.15L692.42 287.63L690.29 290.02L688.07 292.32L685.76 294.54L683.37 296.67L680.9 298.71L678.35 300.66L675.73 302.51L673.03 304.25L670.26 305.9L667.43 307.44L664.53 308.87L661.56 310.2L658.54 311.41L655.46 312.5L652.33 313.48L649.15 314.33L645.92 315.06L642.64 315.66L639.32 316.14L635.96 316.48L632.56 316.68L629.12 316.75L625.69 316.68L622.29 316.48L618.93 316.14L615.61 315.66L612.33 315.06L609.1 314.33L605.91 313.48L602.78 312.5L599.7 311.41L596.68 310.2L593.72 308.87L590.82 307.44L587.98 305.9L585.22 304.25L582.52 302.51L579.89 300.66L577.35 298.71L574.87 296.67L572.48 294.54L570.18 292.32L567.96 290.02L565.83 287.63L563.79 285.15L561.84 282.61L559.99 279.98L559.2 278.76L555.72 278.97L551.3 279.06L551 279.05L550.9 279.17L548.73 281.61L546.48 283.94L544.15 286.18L541.74 288.33L539.25 290.37L536.69 292.31L534.06 294.15L531.37 295.89L528.61 297.52L525.79 299.05L522.92 300.46L520 301.77L517.02 302.96L514.01 304.04L510.95 305L507.85 305.85L504.72 306.58L501.56 307.19L498.37 307.67L495.16 308.03L491.92 308.27L488.67 308.38L485.4 308.37L482.12 308.22L478.84 307.94L475.55 307.53L472.26 306.98L468.98 306.3L465.7 305.48L462.43 304.52L459.18 303.42L455.97 302.19L452.85 300.84L449.8 299.38L446.84 297.8L443.96 296.12L441.17 294.34L438.46 292.45L435.85 290.47L433.33 288.4L430.89 286.23L428.56 283.98L426.32 281.65L424.17 279.24L422.13 276.75L421.36 275.74L420.64 275.93L416.48 276.87L412.25 277.65L407.98 278.26L403.65 278.7L402.51 278.77L402.58 279.94L402.65 283.38L402.58 286.81L402.38 290.21L402.03 293.57L401.56 296.89L400.96 300.17L400.23 303.4L399.37 306.59L398.4 309.72L397.3 312.8L396.1 315.82L394.77 318.78L393.34 321.68L391.8 324.52L390.15 327.28L388.4 329.98L386.56 332.61L384.61 335.15L382.57 337.63L380.44 340.02L378.22 342.32L375.91 344.54L373.52 346.67L371.05 348.71L368.5 350.66L365.88 352.51L363.18 354.25L360.41 355.9L357.58 357.44L354.68 358.87L351.72 360.2L348.69 361.41L345.62 362.5L342.48 363.48L339.3 364.33L336.07 365.06L332.79 365.66L329.47 366.14L326.11 366.48L322.71 366.68L319.27 366.75L315.84 366.68L312.44 366.48L309.08 366.14L305.76 365.66L302.48 365.06L299.25 364.33L296.06 363.48L292.93 362.5L289.85 361.41L286.83 360.2L283.87 358.87L280.97 357.44L278.14 355.9L275.37 354.25L272.67 352.51L270.05 350.66L267.5 348.71L265.03 346.67L262.64 344.54L260.33 342.32L258.11 340.02L255.98 337.63L253.94 335.15L251.99 332.61L250.15 329.98L248.4 327.28L246.75 324.52L245.21 321.68L243.78 318.78L242.86 316.73L240.84 316.68L237.44 316.48L234.08 316.14L230.76 315.66L227.48 315.06L224.25 314.33L221.06 313.48L217.93 312.5L214.85 311.41L211.83 310.2L208.87 308.87L205.97 307.44L203.14 305.9L200.37 304.25L197.67 302.51L195.05 300.66L192.5 298.71L190.03 296.67L187.64 294.54L185.33 292.32L183.11 290.02L180.98 287.63L178.94 285.15L176.99 282.61L175.15 279.98L173.4 277.28L172.34 275.51L170.74 275.93L166.58 276.87L162.36 277.65L158.08 278.26L153.75 278.7L149.37 278.97L144.95 279.06L140.53 278.97L136.15 278.7L131.82 278.26L127.54 277.65L123.32 276.87L119.16 275.93L115.06 274.84L111.02 273.58L107.06 272.17L103.17 270.61L99.35 268.91L95.62 267.06L91.97 265.08L88.4 262.96L84.93 260.71L82.88 259.27L80.84 260.71L77.36 262.96L73.8 265.08L70.15 267.06L66.41 268.91L62.6 270.61L58.71 272.17L54.74 273.58L50.71 274.84L46.61 275.93L42.45 276.87L38.23 277.65L33.95 278.26L29.62 278.7L25.24 278.97L20.82 279.06L16.4 278.97L12.02 278.7L7.69 278.26L3.41 277.65L-0.81 276.87L-4.97 275.93L-9.07 274.84L-13.1 273.58L-17.07 272.17L-20.96 270.61L-24.77 268.91L-28.51 267.06L-32.16 265.08L-35.72 262.96L-39.2 260.71L-42.58 258.33L-45.86 255.82L-49.04 253.2L-52.12 250.45L-55.09 247.59L-57.95 244.62L-60.7 241.54L-63.32 238.36L-65.83 235.08L-68.21 231.7L-70.46 228.22L-72.58 224.66L-74.56 221.01L-76.41 217.27L-78.11 213.46L-79.67 209.57L-81.08 205.6L-82.34 201.57L-83.43 197.47L-84.37 193.31L-85.15 189.09L-85.76 184.81L-86.2 180.48L-86.47 176.1L-86.56 171.68L-86.47 167.26L-86.2 162.88L-85.76 158.55L-85.15 154.27L-84.37 150.05L-83.43 145.89L-82.34 141.79L-81.08 137.76L-79.67 133.79L-78.11 129.9L-76.41 126.09L-74.56 122.35L-72.58 118.7L-70.46 115.14L-68.21 111.66L-65.83 108.28L-63.32 105L-60.7 101.82L-57.95 98.74L-55.09 95.77L-52.12 92.91L-49.04 90.16L-45.86 87.54L-42.58 85.03L-39.2 82.65L-35.72 80.4L-32.16 78.28L-28.51 76.3L-24.77 74.45L-20.96 72.75L-17.07 71.19L-13.1 69.78L-9.07 68.53L-4.97 67.43L-0.81 66.49L3.41 65.71L7.69 65.1L12.02 64.66L16.4 64.39L20.82 64.3L25.24 64.39L29.62 64.66L33.95 65.1L38.23 65.71L42.45 66.49L46.61 67.43L50.71 68.53L54.74 69.78L58.71 71.19L62.6 72.75L66.41 74.45L70.15 76.3L73.8 78.28L77.36 80.4L80.84 82.65L82.88 84.09L84.93 82.65L88.4 80.4L91.97 78.28L95.62 76.3L99.35 74.45L103.17 72.75L107.06 71.19L111.02 69.78L115.06 68.53L119.16 67.43L123.32 66.49L127.54 65.71L131.82 65.1L136.15 64.66L140.53 64.39L144.95 64.3L149.37 64.39L153.75 64.66L158.08 65.1L162.36 65.71L166.58 66.49L170.74 67.43L174.84 68.53L178.87 69.78L182.84 71.19L186.73 72.75L190.54 74.45L191.1 74.73L191.71 74.09L194.68 71.23L197.76 68.48L200.94 65.86L204.22 63.35L207.6 60.97L211.08 58.72L214.64 56.6L218.29 54.62L222.03 52.77L225.84 51.07L229.73 49.51L233.7 48.1L237.73 46.85L241.83 45.75L245.99 44.81L250.22 44.03L254.49 43.42L258.82 42.98L263.2 42.71L267.62 42.62L272.05 42.71L276.42 42.98L280.75 43.42L285.03 44.03L289.25 44.81L293.41 45.75L297.51 46.85L301.55 48.1L305.51 49.51L309.4 51.07L313.22 52.77L316.95 54.62L320.6 56.6L324.17 58.72L327.64 60.97L331.02 63.35L334.3 65.86L337.49 68.48L340.56 71.23L343.54 74.09L345.62 76.25L349.25 74.45L353.07 72.75L356.96 71.19L360.92 69.78L364.96 68.53L369.06 67.43L373.22 66.49L377.44 65.71L381.72 65.1L386.05 64.66L390.42 64.39L394.85 64.3L399.27 64.39L403.65 64.66L407.98 65.1L412.25 65.71L416.48 66.49L420.64 67.43L424.74 68.53L428.77 69.78L432.73 71.19L436.63 72.75L440.44 74.45L444.17 76.3L447.83 78.28L451.39 80.4L454.86 82.65L458.24 85.03L461.53 87.54L464.71 90.16L467.79 92.91L470.76 95.77L473.07 98.17L475.39 95.77L478.36 92.91L481.44 90.16L484.62 87.54L487.9 85.03L491.28 82.65L494.76 80.4L498.32 78.28L501.97 76.3L505.71 74.45L509.52 72.75L513.41 71.19L517.38 69.78L521.41 68.53L525.51 67.43L529.67 66.49L533.89 65.71L538.17 65.1L542.5 64.66L546.88 64.39L551.3 64.3L555.72 64.39L560.1 64.66L564.43 65.1L568.71 65.71L572.93 66.49L577.09 67.43L581.19 68.53L585.23 69.78L589.19 71.19L593.08 72.75L596.9 74.45L600.63 76.3L604.28 78.28L607.85 80.4L611.32 82.65L614.7 85.03L617.98 87.54L621.16 90.16L624.24 92.91L627.21 95.77L627.43 96L628.61 94.68L631.46 91.71L634.44 88.85L637.51 86.11L640.7 83.48L643.98 80.97L647.36 78.59L650.83 76.34L654.4 74.22L658.05 72.24L661.78 70.39L665.6 68.69L669.49 67.13L673.45 65.72L677.49 64.47L681.59 63.37L683.94 62.84L684.55 62.04L687.76 58.14L691.12 54.38L694.62 50.74L698.25 47.25L702.02 43.89L705.91 40.67L709.93 37.61L714.07 34.7L718.32 31.94L722.68 29.35L727.15 26.92L731.72 24.66L736.38 22.58L741.14 20.67L745.99 18.95L750.93 17.41L755.94 16.07L761.04 14.92L766.2 13.97L771.43 13.22L776.73 12.68L782.09 12.36L787.5 12.25L792.91 12.36L798.27 12.68L798.27 12.68L803.57 13.22Z" id="cTg4P5YXy"></path></defs><g><g><g><use xlink:href="#cTg4P5YXy" opacity="1" fill="#ffffff" fill-opacity="1"></use></g></g></g></svg>