<svg xmlns="http://www.w3.org/2000/svg" xmlns:xlink="http://www.w3.org/1999/xlink" viewBox="0 0 376 1015">
  <defs>
    <linearGradient id="group-a" x1="50%" x2="50%" y1="106.027%" y2="72.15%">
      <stop offset="0%" stop-color="#FFF"/>
      <stop offset="99.989%" stop-color="#FFEECB"/>
    </linearGradient>
    <path id="group-b" d="M3.63692849e-05,5.68434189e-14 C44.9631584,5.68434189e-14 290.513332,5.68434189e-14 375.002001,5.68434189e-14 C375.002001,22.7763232 375.002001,987.497656 375.002001,1014.06455 C242.794166,929.577426 141.825213,1031.13964 3.63692849e-05,988.971152 C3.63692849e-05,922.617499 3.63692849e-05,91.8236056 3.63692849e-05,5.68434189e-14 Z"/>
    <linearGradient id="group-c" x1="50%" x2="50%" y1="90.183%" y2="32.854%">
      <stop offset=".011%" stop-color="#F9A11B"/>
      <stop offset="100%" stop-color="#FDC23E"/>
    </linearGradient>
  </defs>
  <g fill="none" fill-rule="evenodd">
    <use fill="url(#group-a)" transform="matrix(1 0 0 -1 0 1014.065)" xlink:href="#group-b"/>
    <path fill="url(#group-c)" d="M-2.84217094e-14,91.447055 C144.132161,28.4649907 169.676137,131.320526 375.00126,60.8235294 C375.071443,202.259242 375.064121,1006.52541 374.993937,1014.06222 C369.830922,1014.06222 9.66726631,1014.06222 -2.84217094e-14,1014.06222 C-2.84217094e-14,1011.13266 -2.84217094e-14,110.05336 -2.84217094e-14,91.447055 Z"/>
  </g>
</svg>
